<svg id="visual" viewBox="0 0 900 600" width="900" height="600" xmlns="http://www.w3.org/2000/svg" xmlns:xlink="http://www.w3.org/1999/xlink" version="1.1"><rect x="0" y="0" width="900" height="600" fill="#ffffff"></rect><path d="M0 427L21.5 417.3C43 407.7 86 388.3 128.8 383.7C171.7 379 214.3 389 257.2 386.8C300 384.7 343 370.3 385.8 372C428.7 373.7 471.3 391.3 514.2 402.8C557 414.3 600 419.7 642.8 426.2C685.7 432.7 728.3 440.3 771.2 444C814 447.7 857 447.3 878.5 447.2L900 447L900 601L878.5 601C857 601 814 601 771.2 601C728.3 601 685.7 601 642.8 601C600 601 557 601 514.2 601C471.3 601 428.7 601 385.8 601C343 601 300 601 257.2 601C214.3 601 171.7 601 128.8 601C86 601 43 601 21.5 601L0 601Z" fill="#009443"></path><path d="M0 404L21.5 413C43 422 86 440 128.8 441.5C171.7 443 214.3 428 257.2 419.7C300 411.3 343 409.7 385.8 409.8C428.7 410 471.3 412 514.2 421.5C557 431 600 448 642.8 447C685.7 446 728.3 427 771.2 426.2C814 425.3 857 442.7 878.5 451.3L900 460L900 601L878.5 601C857 601 814 601 771.2 601C728.3 601 685.7 601 642.8 601C600 601 557 601 514.2 601C471.3 601 428.7 601 385.8 601C343 601 300 601 257.2 601C214.3 601 171.7 601 128.8 601C86 601 43 601 21.5 601L0 601Z" fill="#047b33"></path><path d="M0 506L21.5 501.5C43 497 86 488 128.8 486.5C171.7 485 214.3 491 257.2 495.8C300 500.7 343 504.3 385.8 494.7C428.7 485 471.3 462 514.2 458.3C557 454.7 600 470.3 642.8 470.2C685.7 470 728.3 454 771.2 452.2C814 450.3 857 462.7 878.5 468.8L900 475L900 601L878.5 601C857 601 814 601 771.2 601C728.3 601 685.7 601 642.8 601C600 601 557 601 514.2 601C471.3 601 428.7 601 385.8 601C343 601 300 601 257.2 601C214.3 601 171.7 601 128.8 601C86 601 43 601 21.5 601L0 601Z" fill="#046224"></path><path d="M0 529L21.5 527.5C43 526 86 523 128.8 518.7C171.7 514.3 214.3 508.7 257.2 506.7C300 504.7 343 506.3 385.8 506.8C428.7 507.3 471.3 506.7 514.2 504.8C557 503 600 500 642.8 502C685.7 504 728.3 511 771.2 511C814 511 857 504 878.5 500.5L900 497L900 601L878.5 601C857 601 814 601 771.2 601C728.3 601 685.7 601 642.8 601C600 601 557 601 514.2 601C471.3 601 428.7 601 385.8 601C343 601 300 601 257.2 601C214.3 601 171.7 601 128.8 601C86 601 43 601 21.5 601L0 601Z" fill="#024a16"></path><path d="M0 531L21.5 530C43 529 86 527 128.8 527.2C171.7 527.3 214.3 529.7 257.2 535.2C300 540.7 343 549.3 385.8 552.5C428.7 555.7 471.3 553.3 514.2 548.8C557 544.3 600 537.7 642.8 541.5C685.7 545.3 728.3 559.7 771.2 564C814 568.3 857 562.7 878.5 559.8L900 557L900 601L878.5 601C857 601 814 601 771.2 601C728.3 601 685.7 601 642.8 601C600 601 557 601 514.2 601C471.3 601 428.7 601 385.8 601C343 601 300 601 257.2 601C214.3 601 171.7 601 128.8 601C86 601 43 601 21.5 601L0 601Z" fill="#003409"></path></svg>